<?xml version="1.0" encoding="UTF-8"?><svg id="a" xmlns="http://www.w3.org/2000/svg" viewBox="0 0 30 30"><defs><style>.c{fill:#fff;fill-rule:evenodd;}</style></defs><path id="b" class="c" d="M6.11,11.93c.28,.18,1.12,.72,2.52,1.62,1.4,.9,2.47,1.59,3.22,2.07,.08,.05,.26,.17,.52,.35,.27,.18,.49,.32,.66,.43,.18,.11,.39,.23,.64,.37,.25,.14,.49,.24,.71,.31,.22,.07,.43,.1,.61,.1h.02c.19,0,.39-.03,.61-.1,.22-.07,.46-.17,.71-.31,.25-.14,.46-.26,.64-.37,.18-.11,.4-.25,.66-.43,.27-.18,.44-.29,.52-.35,.75-.48,2.67-1.72,5.75-3.69,.6-.39,1.1-.85,1.5-1.4,.4-.55,.6-1.12,.6-1.72,0-.5-.19-.93-.58-1.28s-.85-.53-1.38-.53H5.96c-.63,0-1.12,.2-1.45,.59-.34,.39-.51,.89-.51,1.48,0,.48,.23,.99,.68,1.55,.45,.56,.93,.99,1.44,1.31Zm18.66,1.22c-2.68,1.68-4.72,2.99-6.11,3.92-.47,.32-.85,.57-1.14,.74-.29,.18-.68,.36-1.16,.55-.48,.19-.93,.28-1.35,.28h-.02c-.42,0-.87-.09-1.35-.28-.48-.19-.87-.37-1.16-.55-.29-.18-.67-.43-1.14-.74-1.1-.75-3.14-2.06-6.1-3.92-.47-.29-.88-.62-1.24-.99v9.02c0,.5,.19,.93,.58,1.28,.38,.36,.85,.53,1.39,.53H24.04c.54,0,1-.18,1.39-.53,.38-.36,.58-.78,.58-1.28V12.16c-.35,.36-.76,.69-1.23,.99Z"/></svg>