<?xml version="1.0" encoding="UTF-8"?><svg id="a" xmlns="http://www.w3.org/2000/svg" viewBox="0 0 220.9 65.98"><defs><style>.b{letter-spacing:-.02em;}.c,.d{letter-spacing:-.02em;}.e,.d{font-family:Switzer-Medium, Switzer;font-size:11.13px;}.f{letter-spacing:-.03em;}</style></defs><path d="M17.03,.02H0V54.37H6.14V30.47h4.67c3.59,0,6.5-2.91,6.5-6.5V.31c0-.16-.13-.29-.29-.29m-5.63,6.05V24.24H6.03V6.08h5.37Z"/><path d="M132.31,.03h-17.02V54.37h6.14V30.47h4.96c3.43,0,6.21-2.78,6.21-6.21V.32c0-.16-.13-.29-.29-.29m-5.63,6.05V24.25h-5.37V6.08h5.37Z"/><path d="M56.73,32.61v21.77h6.14V31.49c0-.67-.24-1.33-.67-1.85l-1.16-1.39c1.01-1.15,1.63-2.65,1.63-4.3V0h-17.31V54.35h6.14V30.73c0-.16,.13-.29,.29-.29h2.77c1.2,0,2.17,.97,2.17,2.17m.03-26.56V24.22h-5.37V6.05h5.37Z"/><g><path d="M192.65,25.47c-.29-.07-.56,.15-.56,.44v21.38c0,1.2-.97,2.17-2.17,2.17h-1.04c-1.2,0-2.17-.97-2.17-2.17V24.06c0-.19-.12-.37-.31-.43-1.81-.63-3.49-1.3-5.02-1.98-.3-.13-.64,.09-.64,.42v25.28c0,3.9,3.16,7.06,7.06,7.06h3.2c3.9,0,7.06-3.16,7.06-7.06V26.94c0-.22-.16-.41-.38-.45-1.58-.26-3.26-.59-5.02-1.01"/><path d="M186.71,10.98v3.46c-2.13-.64-4.13-1.32-5.97-2.01v-2.75h0c1.79,.31,3.64,.59,5.57,.84,.23,.03,.4,.22,.4,.45"/><path d="M198.05,11.93v5.13c-1.89-.31-3.88-.7-5.97-1.19v-4.73l5.54,.33c.24,.01,.43,.21,.43,.46"/><path d="M198.05,20.03v4.19h0c-1.81-.3-3.82-.71-5.97-1.31v-4.13h0c1.95,.35,3.81,.61,5.56,.81,.23,.03,.41,.22,.41,.45"/><path d="M186.71,17.95v3.17h0c-2.24-.88-4.23-1.82-5.97-2.75v-2.55h0c1.73,.59,3.61,1.16,5.62,1.68,.2,.05,.34,.23,.34,.44"/><path d="M192.08,9.06v-2.98h-3.2c-1.18,0-2.13,.94-2.16,2.1,0,.02,0,.04,0,.06,0,.28-.25,.5-.53,.45-1.78-.3-3.47-.63-5.08-.99-.21-.05-.36-.23-.36-.45v-.17c0-3.9,3.16-7.06,7.06-7.06h9.97c.16,0,.28,.13,.28,.28V9.4c0,.26-.22,.47-.49,.46l-5.06-.34c-.24-.02-.43-.22-.43-.46"/></g><path d="M109.64,.06h-9.97c-3.9,0-7.06,3.16-7.06,7.06V47.38c0,3.9,3.16,7.06,7.06,7.06h3.2c3.9,0,7.06-3.16,7.06-7.06V.35c0-.16-.13-.28-.28-.28m-5.69,6.05V49.5h-5.37V6.12h5.37Z"/><path d="M39.99,.02h-10.25c-3.9,0-7.06,3.16-7.06,7.06V47.34c0,3.9,3.16,7.06,7.06,7.06h3.2c3.9,0,7.06-3.16,7.06-7.06V.02Zm-5.97,6.05V49.46h-5.37V6.08h5.37Z"/><path d="M214.76,8.24c0-1.2-.97-2.16-2.16-2.16h-1.04c-1.18,0-2.16,.94-2.17,2.12,0,3.73,.81,7.41,2.4,10.78l2.97,6.31,2.87,6.1c2.04,4.34,3.1,9.08,3.1,13.88v.2c0,4.77-3.73,8.85-8.49,8.94s-8.82-3.82-8.82-8.65v-8.66h5.97v10.21c0,1.2,.97,2.17,2.17,2.17h1.04c1.19,0,2.16-.96,2.17-2.15,0-4.8-1.06-9.55-3.1-13.89l-2.27-4.82-3.57-7.59c-1.58-3.36-2.4-7.02-2.4-10.73v-3.19c0-3.9,3.16-7.06,7.06-7.06h3.04c3.99,0,7.22,3.23,7.22,7.22v7.62h-5.97v-6.62Z"/><path d="M90.72,.32h0c0,3.2-2.59,5.79-5.79,5.79h-5.16V54.38h-6.02V6.1h-8.42V.03h25.1c.16,0,.29,.13,.29,.29"/><polygon points="150.49 54.38 145.72 21.14 145.72 21.14 141.07 54.38 134 54.37 142.72 .03 148.29 .06 156.89 54.38 150.49 54.38"/><path d="M178.06,48.36h0c0,3.32-6.02,6.02-6.02,6.02h-12.47V.02h3.85c1.2,0,2.17,.97,2.17,2.17V48.07c0,.16,.13,.29,.29,.29h12.18Z"/><text class="d" transform="translate(-.89 65.81)"><tspan x="0" y="0">MUSIC</tspan></text><text class="d" transform="translate(72.69 65.81)"><tspan x="0" y="0">&amp;</tspan></text><text class="e" transform="translate(180.13 65.81)"><tspan class="c" x="0" y="0">EVEN</tspan><tspan class="f" x="27.56" y="0">T</tspan><tspan class="b" x="34.18" y="0">S</tspan></text></svg>